<svg width="80" height="80" viewBox="0 0 80 80" xmlns="http://www.w3.org/2000/svg">
  <!-- Field background (yellow) -->
  <ellipse cx="40" cy="65" rx="35" ry="10" fill="#FFD700"/>
  <path d="M10 65 Q40 55 70 65 L70 75 Q40 65 10 75 Z" fill="#FFA500"/>
  
  <!-- Cow (gray) -->
  <ellipse cx="25" cy="35" rx="12" ry="15" fill="#B0B0B0"/>
  <circle cx="25" cy="25" r="8" fill="#B0B0B0"/>
  <!-- Cow ears -->
  <ellipse cx="20" cy="20" rx="3" ry="5" fill="#B0B0B0"/>
  <ellipse cx="30" cy="20" rx="3" ry="5" fill="#B0B0B0"/>
  <!-- Cow horns -->
  <path d="M18 18 L16 14" stroke="#A0A0A0" stroke-width="2" stroke-linecap="round"/>
  <path d="M32 18 L34 14" stroke="#A0A0A0" stroke-width="2" stroke-linecap="round"/>
  <!-- Cow spots -->
  <circle cx="22" cy="30" r="2" fill="#909090"/>
  <circle cx="28" cy="35" r="1.5" fill="#909090"/>
  
  <!-- Plant (green) -->
  <rect x="12" y="50" width="2" height="15" fill="#2D5A2D"/>
  <ellipse cx="11" cy="48" rx="4" ry="2" fill="#4CAF50"/>
  <ellipse cx="15" cy="46" rx="3" ry="2" fill="#4CAF50"/>
  <ellipse cx="13" cy="44" rx="2" ry="1.5" fill="#4CAF50"/>
  
  <!-- Tractor (green) -->
  <rect x="45" y="40" width="20" height="12" rx="2" fill="#4CAF50"/>
  <!-- Tractor cab -->
  <rect x="55" y="32" width="8" height="8" rx="1" fill="#4CAF50"/>
  <rect x="56" y="33" width="6" height="6" fill="#E8F5E8"/>
  <!-- Front wheel -->
  <circle cx="60" cy="56" r="6" fill="#2E7D2E"/>
  <circle cx="60" cy="56" r="3" fill="#1A5A1A"/>
  <!-- Back wheel -->
  <circle cx="48" cy="56" r="4" fill="#2E7D2E"/>
  <circle cx="48" cy="56" r="2" fill="#1A5A1A"/>
  <!-- Tractor details -->
  <rect x="46" y="42" width="2" height="2" fill="#FFD700"/>
  <rect x="49" y="42" width="2" height="2" fill="#FFD700"/>
</svg>