<svg width="80" height="80" viewBox="0 0 80 80" xmlns="http://www.w3.org/2000/svg">
  <!-- Background circle (light green) -->
  <circle cx="40" cy="40" r="38" fill="#E8F5E8" stroke="#4CAF50" stroke-width="2"/>
  
  <!-- Fields/landscape layers -->
  <path d="M2 55 Q20 50 40 55 Q60 50 78 55 L78 65 Q60 60 40 65 Q20 60 2 65 Z" fill="#8BC34A"/>
  <path d="M2 65 Q20 60 40 65 Q60 60 78 65 L78 72 Q60 67 40 72 Q20 67 2 72 Z" fill="#4CAF50"/>
  
  <!-- Modern stylized cow (simplified) -->
  <ellipse cx="20" cy="30" rx="8" ry="10" fill="#FFFFFF" stroke="#666" stroke-width="1"/>
  <circle cx="20" cy="22" r="5" fill="#FFFFFF" stroke="#666" stroke-width="1"/>
  <circle cx="18" cy="20" r="1" fill="#333"/>
  <circle cx="22" cy="20" r="1" fill="#333"/>
  <!-- Cow spots -->
  <ellipse cx="18" cy="28" rx="2" ry="1.5" fill="#333"/>
  <ellipse cx="23" cy="32" rx="1.5" ry="1" fill="#333"/>
  
  <!-- Stylized plant/wheat -->
  <rect x="36" y="45" width="2" height="12" fill="#4CAF50"/>
  <ellipse cx="37" cy="43" rx="3" ry="1.5" fill="#8BC34A"/>
  <ellipse cx="37" cy="41" rx="4" ry="2" fill="#8BC34A"/>
  <ellipse cx="37" cy="39" rx="3" ry="1.5" fill="#8BC34A"/>
  
  <!-- Modern tractor (simplified geometric) -->
  <rect x="50" y="35" width="16" height="8" rx="2" fill="#2E7D32"/>
  <rect x="58" y="28" width="6" height="7" rx="1" fill="#2E7D32"/>
  <rect x="59" y="29" width="4" height="5" fill="#B8E6B8"/>
  <!-- Wheels -->
  <circle cx="62" cy="46" r="4" fill="#1B5E20"/>
  <circle cx="53" cy="46" r="3" fill="#1B5E20"/>
  
  <!-- Central leaf/plant symbol -->
  <path d="M40 20 Q35 25 40 30 Q45 25 40 20" fill="#4CAF50"/>
  <rect x="39" y="20" width="2" height="8" fill="#2E7D32"/>
</svg>