<svg width="80" height="80" viewBox="0 0 200 200" xmlns="http://www.w3.org/2000/svg">
  <!-- Background -->
  <rect width="200" height="200" fill="#F5F5F5"/>
  
  <!-- Yellow fields (curved) -->
  <path d="M20 140 Q50 130 100 140 Q150 130 180 140 L180 170 Q150 160 100 170 Q50 160 20 170 Z" fill="#FFD700"/>
  <path d="M30 160 Q60 150 100 160 Q140 150 170 160 L170 180 Q140 170 100 180 Q60 170 30 180 Z" fill="#FFC107"/>
  
  <!-- Orange/brown field -->
  <path d="M40 120 Q70 110 100 120 Q130 110 160 120 L160 140 Q130 130 100 140 Q70 130 40 140 Z" fill="#FF9800"/>
  
  <!-- Gray cow (simplified) -->
  <ellipse cx="60" cy="70" rx="25" ry="35" fill="#BDBDBD"/>
  <ellipse cx="60" cy="45" rx="18" ry="20" fill="#BDBDBD"/>
  <!-- Cow ears -->
  <ellipse cx="50" cy="35" rx="8" ry="12" fill="#BDBDBD"/>
  <ellipse cx="70" cy="35" rx="8" ry="12" fill="#BDBDBD"/>
  <!-- Cow horns -->
  <path d="M45 30 Q40 20 35 15" stroke="#9E9E9E" stroke-width="3" fill="none"/>
  <path d="M75 30 Q80 20 85 15" stroke="#9E9E9E" stroke-width="3" fill="none"/>
  <!-- Cow eyes -->
  <circle cx="55" cy="40" r="3" fill="#FFFFFF"/>
  <circle cx="65" cy="40" r="3" fill="#FFFFFF"/>
  <circle cx="55" cy="40" r="1.5" fill="#000000"/>
  <circle cx="65" cy="40" r="1.5" fill="#000000"/>
  <!-- Cow nose -->
  <ellipse cx="60" cy="50" rx="4" ry="3" fill="#9E9E9E"/>
  
  <!-- Green plant -->
  <rect x="25" y="90" width="3" height="25" fill="#4CAF50"/>
  <ellipse cx="26" cy="88" rx="6" ry="4" fill="#4CAF50"/>
  <ellipse cx="24" cy="83" rx="5" ry="3" fill="#4CAF50"/>
  <ellipse cx="28" cy="85" rx="4" ry="3" fill="#4CAF50"/>
  <ellipse cx="26" cy="80" rx="3" ry="2" fill="#4CAF50"/>
  
  <!-- Green tractor -->
  <rect x="120" y="80" width="45" height="25" rx="5" fill="#4CAF50"/>
  <!-- Tractor cabin -->
  <rect x="145" y="60" width="18" height="20" rx="3" fill="#4CAF50"/>
  <rect x="147" y="62" width="14" height="16" fill="#E8F5E8"/>
  <!-- Front wheel (large) -->
  <circle cx="155" cy="115" r="12" fill="#2E7D32"/>
  <circle cx="155" cy="115" r="6" fill="#1B5E20"/>
  <!-- Back wheel (smaller) -->
  <circle cx="130" cy="115" r="9" fill="#2E7D32"/>
  <circle cx="130" cy="115" r="4.5" fill="#1B5E20"/>
  <!-- Tractor details -->
  <rect x="125" y="85" width="4" height="4" fill="#FFD700"/>
  <rect x="135" y="85" width="4" height="4" fill="#FFD700"/>
  <!-- Exhaust pipe -->
  <rect x="148" y="50" width="3" height="10" fill="#666"/>
</svg>